<svg width="25" height="25" viewBox="0 0 25 25" fill="none" xmlns="http://www.w3.org/2000/svg">
<g clip-path="url(#clip0_62_108)">
<path d="M24.109 12.1444C24.0743 12.0685 23.2531 10.245 21.439 8.43095C19.0118 6.00751 15.9528 4.72595 12.5778 4.72595C9.20276 4.72595 6.1437 6.00751 3.71932 8.43095C1.90526 10.245 1.08401 12.0685 1.04651 12.1444C0.982998 12.2884 0.950195 12.444 0.950195 12.6014C0.950195 12.7588 0.982998 12.9145 1.04651 13.0585C1.0812 13.1353 1.90245 14.9578 3.71745 16.7719C6.1437 19.1953 9.20276 20.476 12.5778 20.476C15.9528 20.476 19.0118 19.1953 21.4353 16.7719C23.2503 14.9578 24.0715 13.1353 24.1062 13.0585C24.1702 12.9147 24.2034 12.7591 24.2039 12.6017C24.2044 12.4443 24.1721 12.2886 24.109 12.1444ZM19.7909 15.2381C17.7781 17.22 15.3518 18.226 12.5778 18.226C9.8037 18.226 7.37745 17.22 5.36745 15.2372C4.57652 14.4546 3.89617 13.5677 3.34526 12.601C3.89633 11.6346 4.57667 10.748 5.36745 9.96564C7.37839 7.98189 9.8037 6.97595 12.5778 6.97595C15.3518 6.97595 17.7771 7.98189 19.7881 9.96564C20.5789 10.748 21.2593 11.6346 21.8103 12.601C21.2593 13.5676 20.5789 14.4545 19.7881 15.2372L19.7909 15.2381ZM12.5778 8.47595C11.7619 8.47595 10.9644 8.71788 10.286 9.17114C9.60768 9.6244 9.07897 10.2686 8.76676 11.0224C8.45455 11.7761 8.37286 12.6055 8.53202 13.4057C8.69119 14.2059 9.08405 14.9409 9.66095 15.5178C10.2378 16.0947 10.9728 16.4875 11.773 16.6467C12.5732 16.8059 13.4026 16.7242 14.1563 16.412C14.9101 16.0997 15.5543 15.571 16.0076 14.8927C16.4608 14.2143 16.7028 13.4168 16.7028 12.601C16.7015 11.5073 16.2665 10.4588 15.4932 9.68551C14.7199 8.91219 13.6714 8.47719 12.5778 8.47595ZM12.5778 14.476C12.2069 14.476 11.8444 14.366 11.5361 14.16C11.2277 13.9539 10.9874 13.6611 10.8455 13.3185C10.7036 12.9759 10.6664 12.5989 10.7388 12.2352C10.8111 11.8714 10.9897 11.5374 11.2519 11.2751C11.5142 11.0129 11.8483 10.8343 12.212 10.762C12.5757 10.6896 12.9527 10.7268 13.2953 10.8687C13.6379 11.0106 13.9307 11.2509 14.1368 11.5593C14.3428 11.8676 14.4528 12.2301 14.4528 12.601C14.4528 13.0982 14.2552 13.5751 13.9036 13.9268C13.552 14.2784 13.075 14.476 12.5778 14.476Z" fill="black"/>
</g>
<defs>
<clipPath id="clip0_62_108">
<rect width="24" height="24" fill="white" transform="translate(0.577881 0.600952)"/>
</clipPath>
</defs>
</svg>
