<svg width="25" height="25" viewBox="0 0 25 25" fill="none" xmlns="http://www.w3.org/2000/svg">
<g clip-path="url(#clip0_62_106)">
<path d="M5.91026 3.59436C5.81147 3.483 5.69155 3.39235 5.55746 3.32767C5.42337 3.26299 5.27778 3.22556 5.12912 3.21757C4.98047 3.20957 4.8317 3.23116 4.69145 3.28108C4.5512 3.331 4.42225 3.40826 4.31207 3.50838C4.2019 3.60851 4.11269 3.7295 4.04963 3.86435C3.98656 3.99921 3.95088 4.14524 3.94467 4.29398C3.93846 4.44272 3.96182 4.59122 4.01342 4.73086C4.06502 4.87051 4.14382 4.99852 4.24526 5.10749L5.74526 6.76217C2.51557 8.9128 1.11401 11.999 1.04651 12.1444C0.982998 12.2884 0.950195 12.444 0.950195 12.6014C0.950195 12.7588 0.982998 12.9144 1.04651 13.0584C1.0812 13.1353 1.90245 14.9578 3.71745 16.7719C6.1437 19.1953 9.20276 20.4759 12.5778 20.4759C14.218 20.485 15.8436 20.1663 17.359 19.5384L19.2424 21.6103C19.4442 21.827 19.7231 21.9554 20.0189 21.9678C20.3147 21.9801 20.6034 21.8754 20.8225 21.6763C21.0416 21.4772 21.1733 21.1998 21.1893 20.9042C21.2052 20.6086 21.1039 20.3186 20.9074 20.0972L5.91026 3.59436ZM12.5778 18.2259C9.8037 18.2259 7.37745 17.22 5.36745 15.2372C4.57681 14.4543 3.8965 13.5674 3.34526 12.6009C3.83932 11.7281 5.10682 9.7978 7.28276 8.44874L15.7287 17.7403C14.7101 18.0655 13.647 18.2294 12.5778 18.2259ZM24.109 13.0584C24.0753 13.1344 23.2653 14.9334 21.484 16.7297C21.382 16.8429 21.2581 16.9342 21.1197 16.9981C20.9814 17.062 20.8315 17.0971 20.6791 17.1013C20.5268 17.1054 20.3752 17.0786 20.2335 17.0225C20.0919 16.9663 19.9631 16.882 19.855 16.7745C19.747 16.6671 19.6618 16.5388 19.6048 16.3975C19.5478 16.2561 19.5201 16.1047 19.5234 15.9524C19.5267 15.8 19.5609 15.6499 19.624 15.5112C19.6871 15.3724 19.7776 15.248 19.8903 15.1453C20.6385 14.3845 21.284 13.5292 21.8103 12.6009C21.2593 11.6342 20.579 10.7473 19.7881 9.96467C17.7771 7.98186 15.3518 6.97592 12.5778 6.97592C12.2637 6.97592 11.9496 6.98905 11.6403 7.0153C11.4912 7.03127 11.3404 7.01728 11.1968 6.97415C11.0532 6.93101 10.9197 6.85961 10.8041 6.76413C10.6884 6.66865 10.5931 6.55103 10.5236 6.41817C10.4541 6.28531 10.4118 6.13989 10.3993 5.99048C10.3868 5.84106 10.4043 5.69065 10.4508 5.54809C10.4973 5.40553 10.5718 5.27369 10.6699 5.16034C10.768 5.04698 10.8879 4.95438 11.0223 4.88799C11.1567 4.8216 11.3031 4.78275 11.4528 4.77374C11.8212 4.74186 12.2028 4.72592 12.5778 4.72592C15.9528 4.72592 19.0118 6.00749 21.4362 8.43092C23.2503 10.245 24.0715 12.0684 24.1062 12.1444C24.1702 12.2882 24.2034 12.4437 24.2039 12.6011C24.2044 12.7585 24.1721 12.9142 24.109 13.0584Z" fill="black"/>
</g>
<defs>
<clipPath id="clip0_62_106">
<rect width="24" height="24" fill="white" transform="translate(0.577881 0.600952)"/>
</clipPath>
</defs>
</svg>
