<svg width="38" height="38" viewBox="0 0 38 38" fill="none" xmlns="http://www.w3.org/2000/svg">
<path d="M0.0732501 19.08C0.0732501 15.4107 0.755917 12.1893 2.12125 9.416C3.52925 6.64267 5.42792 4.50933 7.81725 3.016C10.2066 1.52266 12.8733 0.775997 15.8173 0.775997C18.3346 0.775997 20.5319 1.288 22.4093 2.312C24.3293 3.336 25.8013 4.68 26.8253 6.344V1.288H37.7693V37H26.8253V31.944C25.7586 33.608 24.2653 34.952 22.3453 35.976C20.4679 37 18.2706 37.512 15.7533 37.512C12.8519 37.512 10.2066 36.7653 7.81725 35.272C5.42792 33.736 3.52925 31.5813 2.12125 28.808C0.755917 25.992 0.0732501 22.7493 0.0732501 19.08ZM26.8253 19.144C26.8253 16.4133 26.0573 14.2587 24.5213 12.68C23.0279 11.1013 21.1933 10.312 19.0173 10.312C16.8413 10.312 14.9853 11.1013 13.4493 12.68C11.9559 14.216 11.2093 16.3493 11.2093 19.08C11.2093 21.8107 11.9559 23.9867 13.4493 25.608C14.9853 27.1867 16.8413 27.976 19.0173 27.976C21.1933 27.976 23.0279 27.1867 24.5213 25.608C26.0573 24.0293 26.8253 21.8747 26.8253 19.144Z" fill="#FFB000"/>
</svg>
