<svg width="25" height="25" viewBox="0 0 25 25" fill="none" xmlns="http://www.w3.org/2000/svg">
<path d="M12.5288 2.74268C10.5263 2.74268 8.56871 3.3365 6.90366 4.44905C5.23862 5.5616 3.94087 7.1429 3.17453 8.99301C2.4082 10.8431 2.20769 12.8789 2.59836 14.843C2.98904 16.807 3.95335 18.6111 5.36936 20.0271C6.78536 21.4431 8.58947 22.4075 10.5535 22.7981C12.5176 23.1888 14.5534 22.9883 16.4035 22.222C18.2536 21.4556 19.8349 20.1579 20.9474 18.4928C22.06 16.8278 22.6538 14.8702 22.6538 12.8677C22.6508 10.1833 21.5831 7.60967 19.685 5.71151C17.7868 3.81335 15.2132 2.74565 12.5288 2.74268ZM12.5288 20.7427C10.9713 20.7427 9.44873 20.2808 8.1537 19.4155C6.85866 18.5502 5.8493 17.3203 5.25326 15.8813C4.65722 14.4423 4.50127 12.8589 4.80513 11.3313C5.10899 9.80374 5.85901 8.40055 6.96035 7.29921C8.06169 6.19787 9.46488 5.44785 10.9925 5.14399C12.5201 4.84013 14.1035 4.99608 15.5424 5.59212C16.9814 6.18816 18.2113 7.19752 19.0766 8.49256C19.942 9.7876 20.4038 11.3101 20.4038 12.8677C20.4016 14.9556 19.5712 16.9573 18.0948 18.4337C16.6184 19.91 14.6167 20.7404 12.5288 20.7427ZM11.4038 13.2427V8.36768C11.4038 8.06931 11.5223 7.78316 11.7333 7.57218C11.9443 7.3612 12.2304 7.24268 12.5288 7.24268C12.8272 7.24268 13.1133 7.3612 13.3243 7.57218C13.5353 7.78316 13.6538 8.06931 13.6538 8.36768V13.2427C13.6538 13.541 13.5353 13.8272 13.3243 14.0382C13.1133 14.2491 12.8272 14.3677 12.5288 14.3677C12.2304 14.3677 11.9443 14.2491 11.7333 14.0382C11.5223 13.8272 11.4038 13.541 11.4038 13.2427ZM14.0288 16.9927C14.0288 17.2893 13.9408 17.5794 13.776 17.826C13.6112 18.0727 13.3769 18.265 13.1028 18.3785C12.8287 18.492 12.5271 18.5217 12.2362 18.4639C11.9452 18.406 11.6779 18.2631 11.4682 18.0533C11.2584 17.8436 11.1155 17.5763 11.0576 17.2853C10.9998 16.9943 11.0295 16.6927 11.143 16.4187C11.2565 16.1446 11.4488 15.9103 11.6955 15.7455C11.9421 15.5806 12.2321 15.4927 12.5288 15.4927C12.9266 15.4927 13.3082 15.6507 13.5895 15.932C13.8708 16.2133 14.0288 16.5949 14.0288 16.9927Z" fill="black"/>
</svg>
